<?xml version="1.0" encoding="utf-8"?>
<!-- Generator: Adobe Illustrator 24.0.2, SVG Export Plug-In . SVG Version: 6.00 Build 0)  -->
<svg version="1.1" id="Capa_1" xmlns="http://www.w3.org/2000/svg" xmlns:xlink="http://www.w3.org/1999/xlink" x="0px" y="0px"
	 viewBox="0 0 104.9 104.9" style="enable-background:new 0 0 104.9 104.9;" xml:space="preserve">
<style type="text/css">
	.st0{fill-rule:evenodd;clip-rule:evenodd;fill:#FFFFFF;}
</style>
<path class="st0" d="M8,49.4h22.5c0.9-14.9,6.1-29.1,15.1-41C25.3,11.6,9.4,28.5,8,49.4z M52.4,9.5c-9.4,11.3-14.9,25.3-15.9,39.9
	h31.7C67.4,34.8,61.8,20.8,52.4,9.5z M68.3,55.4c-1,14.7-6.5,28.6-15.9,39.9c-9.4-11.3-14.9-25.3-15.9-39.9H68.3z M30.6,55.4H8
	c1.4,20.9,17.2,37.9,37.6,41C36.7,84.6,31.4,70.3,30.6,55.4z M59.3,96.4c8.9-11.9,14.2-26.1,15.1-41h22.5
	C95.5,76.3,79.6,93.3,59.3,96.4z M96.8,49.4H74.3c-0.9-14.9-6.1-29.1-15.1-41C79.6,11.6,95.5,28.5,96.8,49.4z M1.9,52.4
	c0-27.9,22.6-50.5,50.5-50.5s50.5,22.6,50.5,50.5s-22.6,50.5-50.5,50.5S1.9,80.3,1.9,52.4z"/>
</svg>
