<?xml version="1.0" encoding="utf-8"?>
<!-- Generator: Adobe Illustrator 24.0.2, SVG Export Plug-In . SVG Version: 6.00 Build 0)  -->
<svg version="1.1" id="Capa_1" xmlns="http://www.w3.org/2000/svg" xmlns:xlink="http://www.w3.org/1999/xlink" x="0px" y="0px"
	 viewBox="0 0 104.9 104.9" style="enable-background:new 0 0 104.9 104.9;" xml:space="preserve">
<style type="text/css">
	.st0{fill:#FFFFFF;}
</style>
<path class="st0" d="M101.2,40l-2.6-4.5c-0.5-0.9-1.7-1.3-2.6-0.7c-0.9,0.5-1.2,1.7-0.7,2.7l2.6,4.5c0.1,0.2,0.1,0.5,0.1,0.6
	c0,0.1-0.1,0.3-0.4,0.5l-6.8,4c-0.4,0.2-0.8,0.1-1-0.3l-13.7-24c-0.2-0.4-0.1-0.8,0.3-1l6.8-4c0.4-0.2,0.8-0.1,1,0.3l2.4,4.3
	c0.5,0.9,1.7,1.3,2.6,0.7c0.9-0.5,1.2-1.7,0.7-2.7L87.5,16c-1.3-2.2-4.1-3-6.3-1.7l-6.8,4c-1,0.6-1.7,1.6-2.1,2.6H53
	c-2.7,0-5.3,1.1-7.2,3l-2,2c-1.7-0.4-3.5-0.6-5.3-0.6h-6c-0.3-1.2-1-2.2-2.2-2.9l-6.8-4c-1.1-0.6-2.3-0.8-3.5-0.5
	c-1.2,0.3-2.2,1.1-2.8,2.2l-13.7,24c-0.6,1.1-0.8,2.3-0.5,3.5c0.3,1.2,1.1,2.2,2.1,2.8l6.8,4c0.7,0.4,1.5,0.6,2.3,0.6
	c0.3,0,0.6,0,0.8-0.1l5.6,5.6c-0.1,0.4-0.1,0.9-0.1,1.4c0,1.9,0.7,3.6,2,5c1.3,1.3,2.9,2,4.5,2c0,0.2,0,0.5,0,0.7c0,1.9,0.7,3.6,2,5
	c1.3,1.3,3.1,2.1,4.9,2.1c0.1,0,0.1,0,0.2,0c0,0.1,0,0.1,0,0.2c0,1.9,0.7,3.6,2,5c1.3,1.3,3.1,2.1,4.9,2.1c0.1,0,0.1,0,0.2,0
	c0,0.1,0,0.1,0,0.2c0,1.9,0.7,3.6,2,5c1.3,1.3,3.1,2.1,4.9,2.1s3.6-0.7,4.9-2.1l2.7-2.8c0.8-0.8,1.4-1.8,1.7-2.8
	c1.2,0.9,2.7,1.4,4.1,1.4c1.8,0,3.6-0.7,4.9-2.1c0.8-0.8,1.4-1.8,1.7-2.9c1.1,0.7,2.4,1.1,3.8,1.1c1.9,0,3.6-0.7,4.9-2.1
	c1-1,1.6-2.2,1.9-3.5c0.7,0.2,1.4,0.4,2.2,0.4c1.9,0,3.6-0.7,4.9-2.1c2.7-2.7,2.7-7.2,0-9.9l-4.5-4.6l8.2-8.3c0.2,0,0.4,0,0.6,0
	c0.8,0,1.6-0.2,2.3-0.6l6.8-4c1.1-0.6,1.8-1.6,2.1-2.8C102,42.4,101.8,41.1,101.2,40z M7.3,47.2C7.1,47,7,46.8,7,46.7
	c0-0.1-0.1-0.3,0.1-0.6l13.7-24c0.1-0.2,0.3-0.3,0.5-0.4c0,0,0.1,0,0.2,0c0.1,0,0.2,0,0.4,0.1l6.8,4c0.4,0.2,0.5,0.7,0.3,1l-13.7,24
	c-0.2,0.4-0.7,0.5-1,0.3L7.3,47.2z M24.6,62.1c0-0.8,0.3-1.6,0.9-2.2l1.7-1.7c0.6-0.6,1.4-0.9,2.2-0.9c0.8,0,1.6,0.3,2.2,0.9
	c0.6,0.6,0.9,1.4,0.9,2.2s-0.3,1.6-0.9,2.2l-1.7,1.7c-1.2,1.2-3.2,1.2-4.4,0C24.9,63.7,24.6,62.9,24.6,62.1z M34.2,72.9
	c-0.8,0-1.6-0.3-2.2-0.9c-0.6-0.6-0.9-1.4-0.9-2.2c0-0.8,0.3-1.6,0.9-2.2l2.7-2.8c0.6-0.6,1.4-0.9,2.2-0.9c0.8,0,1.6,0.3,2.2,0.9
	c0.6,0.6,0.9,1.4,0.9,2.2s-0.3,1.6-0.9,2.2L36.4,72C35.8,72.6,35,72.9,34.2,72.9z M41.3,80.1c-0.8,0-1.6-0.3-2.2-0.9
	c-0.6-0.6-0.9-1.4-0.9-2.2c0-0.8,0.3-1.6,0.9-2.2l2.7-2.8c0.6-0.6,1.4-0.9,2.2-0.9c0.8,0,1.6,0.3,2.2,0.9c0.6,0.6,0.9,1.4,0.9,2.2
	s-0.3,1.6-0.9,2.2l-2.7,2.8C42.9,79.8,42.1,80.1,41.3,80.1z M53.3,83.6l-2.7,2.8c-0.6,0.6-1.4,0.9-2.2,0.9c-0.8,0-1.6-0.3-2.2-0.9
	c-0.6-0.6-0.9-1.4-0.9-2.2c0-0.8,0.3-1.6,0.9-2.2l2.7-2.8c0.6-0.6,1.4-0.9,2.2-0.9c0.8,0,1.6,0.3,2.2,0.9
	C54.5,80.4,54.5,82.4,53.3,83.6z M83.4,71c-0.6,0.6-1.4,0.9-2.2,0.9c-0.8,0-1.6-0.3-2.2-0.9L60.6,52.4c-0.8-0.8-2-0.8-2.7,0
	c-0.8,0.8-0.8,2,0,2.8l16.5,16.7c0.6,0.6,0.9,1.4,0.9,2.2s-0.3,1.6-0.9,2.2c-0.6,0.6-1.4,0.9-2.2,0.9c-0.8,0-1.6-0.3-2.2-0.9
	L50.2,56.2c-0.8-0.8-2-0.8-2.7,0c-0.8,0.8-0.8,2,0,2.8L64,75.7c0.6,0.6,0.9,1.4,0.9,2.2s-0.3,1.6-0.9,2.2c-1.2,1.2-3.2,1.2-4.4,0
	L56,76.4c0,0,0,0,0,0c-1.4-1.4-3.2-2.1-5-2c0-0.1,0-0.1,0-0.2c0-1.9-0.7-3.6-2-5c-1.4-1.4-3.2-2.1-5.1-2.1c0-0.1,0-0.1,0-0.2
	c0-1.9-0.7-3.6-2-5c-1.5-1.5-3.6-2.2-5.6-2c-0.1-1.8-0.8-3.4-2-4.6c-2.7-2.7-7.1-2.7-9.8,0l-1.7,1.7c0,0,0,0,0,0l-4.3-4.3l13.4-23.5
	h6.7c0.7,0,1.3,0,2,0.1l-2.2,2.2c-1.3,1.3-2,3.1-2,5c0,1.9,0.7,3.6,2,5c1.4,1.4,3.1,2.1,4.9,2.1c1.8,0,3.6-0.7,4.9-2.1l5.2-5.3
	l30,30.4C84.6,67.8,84.6,69.8,83.4,71z M64.9,42.3c2.8-2.1,4.5-5.4,4.5-9c0-1.1-0.9-2-1.9-2c-1.1,0-1.9,0.9-1.9,2
	c0,2.6-1.3,4.9-3.5,6.2l-7.3-7.4c-0.8-0.8-2-0.8-2.7,0l-6.6,6.7c-1.2,1.2-3.2,1.2-4.4,0c-0.6-0.6-0.9-1.4-0.9-2.2
	c0-0.8,0.3-1.6,0.9-2.2l7.5-7.6c1.2-1.2,2.8-1.9,4.4-1.9h19.8l13.6,23.8c0,0.1,0.1,0.1,0.1,0.2l-7.6,7.7L64.9,42.3z"/>
<path class="st0" d="M92.6,30.8c0.5,0,1-0.2,1.4-0.6c0.4-0.4,0.6-0.9,0.6-1.4c0-0.5-0.2-1-0.6-1.4c-0.4-0.4-0.9-0.6-1.4-0.6
	c-0.5,0-1,0.2-1.4,0.6c-0.4,0.4-0.6,0.9-0.6,1.4c0,0.5,0.2,1,0.6,1.4C91.6,30.6,92.1,30.8,92.6,30.8z"/>
</svg>
