<?xml version="1.0" encoding="utf-8"?>
<!-- Generator: Adobe Illustrator 24.0.2, SVG Export Plug-In . SVG Version: 6.00 Build 0)  -->
<svg version="1.1" id="Capa_1" xmlns="http://www.w3.org/2000/svg" xmlns:xlink="http://www.w3.org/1999/xlink" x="0px" y="0px"
	 viewBox="0 0 104.9 104.9" style="enable-background:new 0 0 104.9 104.9;" xml:space="preserve">
<style type="text/css">
	.st0{fill:#FFFFFF;}
</style>
<path class="st0" d="M62.9,41c-9.4,0-17,7.4-17,16.5s7.6,16.5,17,16.5s17-7.4,17-16.5S72.2,41,62.9,41z M62.9,70.3
	c-7.2,0-13.1-5.7-13.1-12.8c0-7,5.9-12.8,13.1-12.8c7.2,0,13.1,5.7,13.1,12.8C76,64.6,70.1,70.3,62.9,70.3z"/>
<path class="st0" d="M62.9,49.1c-1.1,0-1.9,0.8-1.9,1.9c0,1,0.9,1.9,1.9,1.9c2.7,0,4.8,2.1,4.8,4.7c0,1,0.9,1.9,1.9,1.9
	s1.9-0.8,1.9-1.9C71.5,52.9,67.6,49.1,62.9,49.1z"/>
<path class="st0" d="M15,23.6c-0.5-0.9-1.7-1.3-2.6-0.8c-0.9,0.5-1.3,1.6-0.8,2.5l5.2,9.8c0.3,0.6,1,1,1.7,1c0.7,0,1.4-0.4,1.7-1.1
	l3.1-6.4l3.4,6.4c0.3,0.6,1,1,1.7,1h0c0.7,0,1.4-0.4,1.7-1.1l4.8-9.8c0.5-0.9,0.1-2.1-0.9-2.5c-1-0.4-2.1-0.1-2.6,0.9L28.4,30
	L25,23.6c-0.3-0.6-1-1-1.7-1c-0.7,0-1.4,0.4-1.7,1.1L18.4,30L15,23.6z"/>
<path class="st0" d="M27.4,13.2c0.5,0,1-0.2,1.4-0.6c0.4-0.3,0.6-0.8,0.6-1.3s-0.2-1-0.6-1.3c-0.4-0.3-0.9-0.6-1.4-0.6
	c-0.5,0-1,0.2-1.4,0.6c-0.4,0.3-0.6,0.8-0.6,1.3s0.2,1,0.6,1.3C26.4,13,26.9,13.2,27.4,13.2z"/>
<path class="st0" d="M101.8,41.7V16.9c0-4.1-3.5-7.5-7.7-7.5H35.5c-1.1,0-1.9,0.8-1.9,1.9c0,1,0.9,1.9,1.9,1.9h58.6
	c2.1,0,3.9,1.7,3.9,3.8v24.8c0,2.1-1.7,3.8-3.9,3.8h-9.3c-0.1,0-0.1,0-0.2,0c-3-5.1-7.8-9.1-13.6-11l2.9-5.8l3.4,6.4
	c0.3,0.6,1,1,1.7,1h0c0.7,0,1.4-0.4,1.7-1.1l4.8-9.8c0.5-0.9,0.1-2.1-0.9-2.5c-1-0.4-2.1-0.1-2.6,0.9L79,30l-3.4-6.4
	c-0.3-0.6-1-1-1.7-1c-0.7,0-1.4,0.4-1.7,1.1L69,30l-3.4-6.4c-0.5-0.9-1.7-1.3-2.6-0.8c-0.9,0.5-1.3,1.6-0.8,2.5l4.3,8
	c-1.2-0.2-2.4-0.3-3.6-0.3c-2.4,0-4.7,0.3-6.8,0.9l4.3-8.8c0.5-0.9,0.1-2.1-0.9-2.5c-1-0.4-2.1-0.1-2.6,0.9L53.7,30l-3.4-6.4
	c-0.3-0.6-1-1-1.7-1c-0.7,0-1.4,0.4-1.7,1.1L43.7,30l-3.4-6.4c-0.5-0.9-1.7-1.3-2.6-0.8c-0.9,0.5-1.3,1.6-0.8,2.5l5.2,9.8
	c0.3,0.6,1,1,1.7,1c0.7,0,1.4-0.4,1.7-1.1l3.1-6.4l3.4,6.4c0.1,0.1,0.1,0.2,0.2,0.3c-4.7,2.2-8.7,5.7-11.2,10.1H10.8
	c-2.1,0-3.9-1.7-3.9-3.8V16.9c0-2.1,1.7-3.8,3.9-3.8h7.9c1.1,0,1.9-0.8,1.9-1.9c0-1-0.9-1.9-1.9-1.9h-7.9c-4.3,0-7.7,3.4-7.7,7.5
	v24.8c0,4.1,3.5,7.5,7.7,7.5h28.5c-1,2.6-1.5,5.4-1.5,8.3C37.8,71,49,81.9,62.9,81.9c4.5,0,8.8-1.2,12.5-3.3l15.3,14.9
	c1.3,1.2,2.9,1.9,4.6,1.9s3.3-0.6,4.6-1.9c2.5-2.5,2.5-6.5,0-9l-6-5.9c-0.8-0.7-2-0.7-2.7,0c-0.8,0.7-0.8,1.9,0,2.7l6,5.9
	c1,1,1,2.7,0,3.7c-1,1-2.7,1-3.8,0L78.6,76.5c5.7-4.5,9.3-11.3,9.3-19c0-2.9-0.5-5.7-1.5-8.3h7.6C98.3,49.2,101.8,45.9,101.8,41.7z
	 M62.9,78.2c-11.7,0-21.2-9.3-21.2-20.7c0-11.4,9.5-20.7,21.2-20.7s21.2,9.3,21.2,20.7C84.1,68.9,74.5,78.2,62.9,78.2z"/>
<path class="st0" d="M86.6,74.3c-0.4,0.3-0.6,0.8-0.6,1.3c0,0.5,0.2,1,0.6,1.3c0.4,0.3,0.9,0.6,1.4,0.6c0.5,0,1-0.2,1.4-0.6
	c0.4-0.4,0.6-0.8,0.6-1.3c0-0.5-0.2-1-0.6-1.3c-0.4-0.3-0.9-0.6-1.4-0.6C87.4,73.7,86.9,73.9,86.6,74.3z"/>
</svg>
