<?xml version="1.0" encoding="utf-8"?>
<!-- Generator: Adobe Illustrator 24.0.2, SVG Export Plug-In . SVG Version: 6.00 Build 0)  -->
<svg version="1.1" id="Capa_1" xmlns="http://www.w3.org/2000/svg" xmlns:xlink="http://www.w3.org/1999/xlink" x="0px" y="0px"
	 viewBox="0 0 104.9 104.9" style="enable-background:new 0 0 104.9 104.9;" xml:space="preserve">
<style type="text/css">
	.st0{fill-rule:evenodd;clip-rule:evenodd;fill:#FFFFFF;}
</style>
<path class="st0" d="M23.5,6.3C24.1,5.5,25,5.1,26,5.1h52.9c1,0,1.9,0.5,2.5,1.2L94.6,24c0.4,0.5,0.6,1.2,0.6,1.8v62
	c0,3.2-1.3,6.2-3.5,8.4c-2.2,2.2-5.3,3.5-8.4,3.5H21.6c-3.2,0-6.2-1.3-8.4-3.5c-2.2-2.2-3.5-5.3-3.5-8.4v-62c0-0.7,0.2-1.3,0.6-1.8
	L23.5,6.3z M27.6,11.2l-8.6,11.5h67l-8.6-11.5H27.6z M89,29H15.9v58.9c0,1.5,0.6,3,1.7,4.1c1.1,1.1,2.5,1.7,4,1.7h61.7
	c1.5,0,3-0.6,4-1.7c1.1-1.1,1.7-2.5,1.7-4.1V29z M34.8,40.5c1.7,0,3.1,1.4,3.1,3.1c0,3.9,1.5,7.6,4.3,10.3c2.7,2.7,6.4,4.3,10.3,4.3
	s7.5-1.5,10.3-4.3c2.7-2.7,4.3-6.5,4.3-10.3c0-1.7,1.4-3.1,3.1-3.1c1.7,0,3.1,1.4,3.1,3.1c0,5.5-2.2,10.8-6.1,14.7
	c-3.9,3.9-9.2,6.1-14.7,6.1s-10.8-2.2-14.7-6.1c-3.9-3.9-6.1-9.2-6.1-14.7C31.7,41.9,33.1,40.5,34.8,40.5z"/>
</svg>
