<?xml version="1.0" encoding="utf-8"?>
<!-- Generator: Adobe Illustrator 24.0.2, SVG Export Plug-In . SVG Version: 6.00 Build 0)  -->
<svg version="1.1" id="Capa_1" xmlns="http://www.w3.org/2000/svg" xmlns:xlink="http://www.w3.org/1999/xlink" x="0px" y="0px"
	 viewBox="0 0 314.6 107.7" style="enable-background:new 0 0 314.6 107.7;" xml:space="preserve">
<style type="text/css">
	.st0{fill:#FFFFFF;}
</style>
<path class="st0" d="M17.1,82.9H2.3V9.5h14.8V82.9z"/>
<path class="st0" d="M43.9,82.9H29.8V28.1h3.4l4.6,5.3c2.3-2,4.8-3.6,7.7-4.7c2.9-1.1,5.9-1.7,9-1.7c3.4,0,6.6,0.6,9.5,1.9
	c3,1.3,5.6,3,7.8,5.3c2.2,2.2,4,4.8,5.3,7.8c1.3,3,2,6.1,2,9.5v31.3H65.1V51.6c0-1.4-0.3-2.8-0.8-4c-0.6-1.3-1.3-2.4-2.3-3.4
	c-1-1-2.1-1.7-3.4-2.3c-1.3-0.5-2.6-0.8-4.1-0.8c-1.5,0-2.9,0.3-4.2,0.8c-1.3,0.5-2.4,1.3-3.4,2.3c-1,1-1.7,2.1-2.3,3.4
	c-0.6,1.3-0.8,2.6-0.8,4V82.9z"/>
<path class="st0" d="M129.1,55c0-1.9-0.4-3.8-1.1-5.5c-0.7-1.8-1.7-3.4-3-4.8c-1.3-1.4-2.8-2.5-4.5-3.3c-1.7-0.9-3.5-1.3-5.4-1.3
	s-3.8,0.3-5.5,1c-1.7,0.6-3.2,1.6-4.4,2.9c-1.2,1.3-2.2,2.8-2.9,4.7c-0.7,1.8-1.1,4-1.1,6.3c0,2.3,0.4,4.3,1.1,6.2
	c0.7,1.8,1.7,3.4,2.9,4.7c1.3,1.3,2.8,2.3,4.4,3c1.7,0.7,3.5,1,5.5,1s3.7-0.4,5.4-1.2c1.7-0.9,3.2-2,4.5-3.3c1.3-1.4,2.3-3,3-4.8
	C128.7,58.8,129.1,56.9,129.1,55z M143.2,76c0,3.9-0.7,7.5-2.2,10.8c-1.5,3.4-3.5,6.3-6.1,8.9c-2.5,2.5-5.5,4.5-9,6
	c-3.4,1.5-7.1,2.2-10.9,2.2l-7.1-0.1v-14l7,0.1c2.2,0,4.1-0.3,5.6-0.9c1.5-0.5,2.9-1.3,3.9-2.3c1.1-1,1.9-2.1,2.5-3.3
	c0.7-1.3,1.2-2.6,1.5-4c-0.5,0.9-1.3,1.6-2.4,2.2c-1,0.5-2.2,1-3.5,1.3c-1.2,0.4-2.5,0.6-3.9,0.8c-1.3,0.1-2.6,0.2-3.8,0.2
	c-3.9,0-7.6-0.7-11-2c-3.4-1.3-6.4-3.2-9-5.7c-2.5-2.5-4.6-5.5-6-9.1c-1.5-3.6-2.2-7.6-2.2-12.1c0-4.1,0.7-8,2.2-11.5
	c1.5-3.5,3.5-6.6,6-9.2c2.6-2.6,5.6-4.6,9-6.1c3.4-1.5,7.1-2.2,11-2.2c1.8,0,3.6,0.2,5.3,0.7c1.8,0.4,3.5,1.1,5.1,1.8
	c1.7,0.8,3.2,1.7,4.7,2.8c1.5,1.1,2.9,2.2,4.2,3.4l5.5-6.5h3.4V76z"/>
<path class="st0" d="M176.4,69.5c0.6,0.2,1.1,0.3,1.7,0.4c0.6,0,1.1,0.1,1.7,0.1c1.4,0,2.7-0.2,4-0.6c1.3-0.4,2.5-0.9,3.6-1.6
	c1.1-0.7,2.1-1.6,3-2.6c0.9-1,1.6-2.1,2.2-3.4l10.3,10.3c-1.3,1.8-2.8,3.5-4.5,5c-1.7,1.5-3.5,2.7-5.5,3.7c-2,1-4,1.8-6.2,2.3
	c-2.2,0.5-4.4,0.8-6.7,0.8c-3.9,0-7.6-0.7-11-2.1c-3.4-1.4-6.4-3.4-9-6c-2.5-2.6-4.6-5.6-6-9.1c-1.5-3.5-2.2-7.4-2.2-11.7
	c0-4.3,0.7-8.3,2.2-11.9c1.5-3.6,3.5-6.6,6-9.2c2.6-2.5,5.6-4.5,9-5.9c3.4-1.4,7.1-2.1,11-2.1c2.3,0,4.6,0.3,6.8,0.8
	c2.2,0.5,4.3,1.3,6.2,2.4c2,1,3.9,2.3,5.6,3.8c1.7,1.5,3.2,3.1,4.5,5L176.4,69.5z M183.7,40.7c-0.7-0.2-1.3-0.4-2-0.5
	c-0.6-0.1-1.3-0.1-2-0.1c-1.9,0-3.8,0.4-5.5,1.1c-1.7,0.7-3.2,1.7-4.4,3c-1.2,1.3-2.2,2.9-2.9,4.7c-0.7,1.8-1.1,3.9-1.1,6.1
	c0,0.5,0,1.1,0.1,1.7c0.1,0.6,0.2,1.3,0.3,2c0.1,0.6,0.3,1.3,0.5,1.9c0.2,0.6,0.4,1.2,0.7,1.6L183.7,40.7z"/>
<path class="st0" d="M224.5,82.9h-14.1V28.1h3.4l4.6,5.3c2.3-2,4.8-3.6,7.7-4.7c2.9-1.1,5.9-1.7,9-1.7c3.4,0,6.6,0.6,9.5,1.9
	c3,1.3,5.6,3,7.8,5.3c2.2,2.2,4,4.8,5.3,7.8c1.3,3,2,6.1,2,9.5v31.3h-14.1V51.6c0-1.4-0.3-2.8-0.8-4c-0.6-1.3-1.3-2.4-2.3-3.4
	c-1-1-2.1-1.7-3.4-2.3c-1.3-0.5-2.6-0.8-4.1-0.8c-1.5,0-2.9,0.3-4.2,0.8c-1.3,0.5-2.4,1.3-3.4,2.3c-1,1-1.7,2.1-2.3,3.4
	c-0.6,1.3-0.8,2.6-0.8,4V82.9z"/>
<path class="st0" d="M286.9,13.2c0,1.3-0.3,2.5-0.8,3.6c-0.5,1.1-1.2,2.1-2,3c-0.9,0.8-1.9,1.5-3,2c-1.1,0.5-2.4,0.7-3.7,0.7
	c-1.3,0-2.5-0.2-3.7-0.7c-1.1-0.5-2.1-1.2-3-2c-0.8-0.9-1.5-1.8-2-3c-0.5-1.1-0.7-2.3-0.7-3.6c0-1.3,0.2-2.5,0.7-3.6
	c0.5-1.2,1.2-2.1,2-3c0.9-0.9,1.9-1.5,3-2c1.2-0.5,2.4-0.8,3.7-0.8c1.3,0,2.5,0.3,3.7,0.8c1.2,0.5,2.2,1.1,3,2c0.9,0.8,1.5,1.8,2,3
	C286.7,10.7,286.9,11.9,286.9,13.2z M284.5,82.9h-14.2V28.1h14.2V82.9z"/>
<path class="st0" d="M312.3,13.2c0,1.3-0.3,2.5-0.8,3.6c-0.5,1.1-1.2,2.1-2,3c-0.9,0.8-1.9,1.5-3,2c-1.1,0.5-2.4,0.7-3.7,0.7
	c-1.3,0-2.5-0.2-3.7-0.7c-1.1-0.5-2.1-1.2-3-2c-0.8-0.9-1.5-1.8-2-3c-0.5-1.1-0.7-2.3-0.7-3.6c0-1.3,0.2-2.5,0.7-3.6
	c0.5-1.2,1.2-2.1,2-3c0.9-0.9,1.9-1.5,3-2c1.2-0.5,2.4-0.8,3.7-0.8c1.3,0,2.5,0.3,3.7,0.8c1.2,0.5,2.2,1.1,3,2c0.9,0.8,1.5,1.8,2,3
	C312.1,10.7,312.3,11.9,312.3,13.2z M309.9,82.9h-14.2V28.1h14.2V82.9z"/>
</svg>
