<?xml version="1.0" encoding="utf-8"?>
<!-- Generator: Adobe Illustrator 24.0.2, SVG Export Plug-In . SVG Version: 6.00 Build 0)  -->
<svg version="1.1" id="Capa_1" xmlns="http://www.w3.org/2000/svg" xmlns:xlink="http://www.w3.org/1999/xlink" x="0px" y="0px"
	 viewBox="0 0 121.9 119.1" style="enable-background:new 0 0 121.9 119.1;" xml:space="preserve">
<style type="text/css">
	.st0{fill:#3BBFC3;}
</style>
<path class="st0" d="M118.1,45l-3-5.3c-0.6-1.1-2-1.5-3.1-0.8c-1.1,0.6-1.5,2-0.8,3.1l3,5.3c0.2,0.3,0.1,0.5,0.1,0.7
	c0,0.1-0.1,0.4-0.4,0.5l-8,4.6c-0.4,0.2-1,0.1-1.2-0.3l-16-28c-0.2-0.4-0.1-1,0.3-1.2l8-4.6c0.4-0.2,1-0.1,1.2,0.3l2.9,5
	c0.6,1.1,2,1.5,3.1,0.8c1.1-0.6,1.5-2,0.8-3.1l-2.9-5c-1.5-2.6-4.8-3.5-7.4-2l-8,4.6c-1.2,0.7-2.1,1.8-2.4,3.1H61.7
	c-3.2,0-6.2,1.2-8.4,3.5l-2.3,2.3c-2-0.5-4.1-0.7-6.2-0.7h-7c-0.4-1.4-1.2-2.6-2.5-3.4l-8-4.6c-1.3-0.7-2.7-0.9-4.1-0.5
	c-1.4,0.4-2.6,1.3-3.3,2.5l-16,28C3,51.1,2.9,52.6,3.2,54c0.4,1.4,1.3,2.6,2.5,3.3l8,4.6c0.8,0.5,1.8,0.7,2.7,0.7c0.3,0,0.7,0,1-0.1
	l6.5,6.6c-0.1,0.5-0.2,1-0.2,1.6c0,2.2,0.8,4.3,2.4,5.8c1.5,1.5,3.4,2.3,5.3,2.4c0,0.3,0,0.6,0,0.9c0,2.2,0.8,4.3,2.4,5.8
	c1.5,1.5,3.6,2.4,5.8,2.4c0.1,0,0.1,0,0.2,0c0,0.1,0,0.1,0,0.2c0,2.2,0.8,4.3,2.4,5.8c1.5,1.5,3.6,2.4,5.8,2.4c0.1,0,0.1,0,0.2,0
	c0,0.1,0,0.1,0,0.2c0,2.2,0.8,4.3,2.4,5.8c1.5,1.5,3.6,2.4,5.8,2.4c2.2,0,4.2-0.9,5.8-2.4l3.2-3.2c0.9-1,1.6-2.1,2-3.3
	c1.4,1.1,3.1,1.6,4.8,1.6c2.1,0,4.2-0.8,5.8-2.4c0.9-1,1.6-2.1,2-3.4c1.3,0.9,2.8,1.3,4.4,1.3c2.2,0,4.2-0.9,5.8-2.4
	c1.1-1.2,1.9-2.6,2.2-4.1c0.8,0.3,1.7,0.4,2.6,0.4c2.2,0,4.2-0.9,5.8-2.4c3.2-3.2,3.2-8.4,0-11.6l-5.3-5.3l9.6-9.7
	c0.2,0,0.4,0,0.6,0c0.9,0,1.8-0.2,2.7-0.7l8-4.6c1.3-0.7,2.1-1.9,2.5-3.3C119,47.8,118.8,46.3,118.1,45z M8,53.4
	c-0.3-0.2-0.4-0.4-0.4-0.5c0-0.1-0.1-0.4,0.1-0.7l16-28c0.2-0.3,0.4-0.4,0.5-0.4c0.1,0,0.1,0,0.2,0c0.1,0,0.3,0,0.4,0.1l8,4.6
	c0.4,0.2,0.6,0.8,0.3,1.2l-16,28c-0.2,0.4-0.8,0.6-1.2,0.3L8,53.4z M28.3,70.8c0-1,0.4-1.9,1.1-2.6l2-2c0.7-0.7,1.6-1.1,2.6-1.1
	c0.9,0,1.9,0.4,2.6,1.1c0.7,0.7,1.1,1.6,1.1,2.6c0,1-0.4,1.9-1.1,2.6l-2,2c-1.4,1.4-3.7,1.4-5.1,0C28.7,72.6,28.3,71.7,28.3,70.8z
	 M39.6,83.4c-1,0-1.9-0.4-2.6-1.1c-0.7-0.7-1.1-1.6-1.1-2.6c0-1,0.4-1.9,1.1-2.6l3.2-3.2c0.7-0.7,1.6-1.1,2.6-1.1
	c0.9,0,1.9,0.4,2.6,1.1c0.7,0.7,1.1,1.6,1.1,2.6c0,1-0.4,1.9-1.1,2.6l-3.2,3.2C41.4,83.1,40.5,83.4,39.6,83.4z M47.9,91.8
	c-1,0-1.9-0.4-2.6-1.1c-0.7-0.7-1.1-1.6-1.1-2.6c0-1,0.4-1.9,1.1-2.6l3.2-3.2c0.7-0.7,1.6-1.1,2.6-1.1c0.9,0,1.9,0.4,2.6,1.1
	c0.7,0.7,1.1,1.6,1.1,2.6c0,1-0.4,1.9-1.1,2.6l-3.2,3.2C49.7,91.4,48.8,91.8,47.9,91.8z M62,95.9l-3.2,3.2c-0.7,0.7-1.6,1.1-2.6,1.1
	c-1,0-1.9-0.4-2.6-1.1c-0.7-0.7-1.1-1.6-1.1-2.6c0-1,0.4-1.9,1.1-2.6l3.2-3.2c0.7-0.7,1.6-1.1,2.6-1.1c0.9,0,1.9,0.4,2.6,1.1
	C63.4,92.2,63.4,94.5,62,95.9z M97.3,81.2c-0.7,0.7-1.6,1.1-2.6,1.1c-1,0-1.9-0.4-2.6-1.1L70.6,59.5c-0.9-0.9-2.3-0.9-3.2,0
	c-0.9,0.9-0.9,2.3,0,3.2l19.4,19.5c0.7,0.7,1.1,1.6,1.1,2.6c0,1-0.4,1.9-1.1,2.6c-0.7,0.7-1.6,1.1-2.6,1.1c-1,0-1.9-0.4-2.6-1.1
	L58.4,63.9c-0.9-0.9-2.3-0.9-3.2,0c-0.9,0.9-0.9,2.3,0,3.2l19.4,19.5c0.7,0.7,1.1,1.6,1.1,2.6c0,1-0.4,1.9-1.1,2.6
	c-1.4,1.4-3.7,1.4-5.1,0l-4.3-4.3c0,0,0,0,0,0c-1.6-1.6-3.8-2.4-5.9-2.4c0-0.1,0-0.1,0-0.2c0-2.2-0.8-4.3-2.4-5.8
	c-1.6-1.6-3.8-2.4-5.9-2.4c0-0.1,0-0.1,0-0.2c0-2.2-0.8-4.3-2.4-5.8c-1.8-1.8-4.2-2.6-6.5-2.4c-0.1-2-0.9-4-2.4-5.4
	c-3.2-3.2-8.3-3.2-11.5,0l-2,2c0,0,0,0,0,0l-5-5.1l15.7-27.5h7.8c0.8,0,1.5,0,2.3,0.1l-2.6,2.6c-1.5,1.5-2.4,3.6-2.4,5.8
	c0,2.2,0.8,4.3,2.4,5.8c1.6,1.6,3.7,2.4,5.8,2.4c2.1,0,4.2-0.8,5.8-2.4l6.1-6.2l35.2,35.5C98.7,77.5,98.7,79.8,97.3,81.2z
	 M75.5,47.7c3.3-2.4,5.3-6.3,5.3-10.5c0-1.3-1-2.3-2.3-2.3c-1.2,0-2.3,1-2.3,2.3c0,3-1.6,5.7-4.1,7.2l-8.6-8.7
	c-0.9-0.9-2.3-0.9-3.2,0l-7.7,7.8c-1.4,1.4-3.7,1.4-5.1,0c-0.7-0.7-1.1-1.6-1.1-2.6c0-1,0.4-1.9,1.1-2.6l8.8-8.9
	c1.4-1.4,3.2-2.2,5.2-2.2h23.2l15.9,27.8c0,0.1,0.1,0.1,0.1,0.2l-8.9,9L75.5,47.7z"/>
<path class="st0" d="M108.1,34.3c0.6,0,1.2-0.2,1.6-0.7c0.4-0.4,0.7-1,0.7-1.6c0-0.6-0.2-1.2-0.7-1.6c-0.4-0.4-1-0.7-1.6-0.7
	c-0.6,0-1.2,0.2-1.6,0.7c-0.4,0.4-0.7,1-0.7,1.6c0,0.6,0.2,1.2,0.7,1.6C106.9,34.1,107.5,34.3,108.1,34.3z"/>
</svg>
