<?xml version="1.0" encoding="utf-8"?>
<!-- Generator: Adobe Illustrator 24.0.2, SVG Export Plug-In . SVG Version: 6.00 Build 0)  -->
<svg version="1.1" id="Capa_1" xmlns="http://www.w3.org/2000/svg" xmlns:xlink="http://www.w3.org/1999/xlink" x="0px" y="0px"
	 viewBox="0 0 121.9 119.1" style="enable-background:new 0 0 121.9 119.1;" xml:space="preserve">
<style type="text/css">
	.st0{fill:#3BBFC3;}
</style>
<path class="st0" d="M73.4,45.8c-11.2,0-20.3,8.9-20.3,19.8c0,10.9,9.1,19.8,20.3,19.8c11.2,0,20.3-8.9,20.3-19.8
	C93.7,54.7,84.6,45.8,73.4,45.8z M73.4,80.9c-8.6,0-15.7-6.9-15.7-15.3c0-8.4,7-15.3,15.7-15.3s15.7,6.9,15.7,15.3
	C89.1,74,82,80.9,73.4,80.9z"/>
<path class="st0" d="M73.4,55.5c-1.3,0-2.3,1-2.3,2.2c0,1.2,1,2.2,2.3,2.2c3.2,0,5.8,2.5,5.8,5.6c0,1.2,1,2.2,2.3,2.2
	c1.3,0,2.3-1,2.3-2.2C83.8,60,79.1,55.5,73.4,55.5z"/>
<path class="st0" d="M16.2,25c-0.6-1.1-2-1.5-3.1-1c-1.1,0.6-1.6,1.9-1,3l6.2,11.7c0.4,0.8,1.2,1.2,2.1,1.2c0.9,0,1.7-0.5,2-1.3
	l3.8-7.6l4.1,7.7c0.4,0.7,1.2,1.2,2,1.2h0c0.9,0,1.7-0.5,2-1.3L40.1,27c0.6-1.1,0.1-2.5-1.1-3c-1.1-0.5-2.5-0.1-3.1,1.1l-3.8,7.6
	L28.1,25c-0.4-0.8-1.2-1.2-2.1-1.2c-0.9,0-1.7,0.5-2,1.3l-3.8,7.6L16.2,25z"/>
<path class="st0" d="M31,12.5c0.6,0,1.2-0.2,1.6-0.7c0.4-0.4,0.7-1,0.7-1.6c0-0.6-0.2-1.2-0.7-1.6C32.2,8.3,31.6,8,31,8
	c-0.6,0-1.2,0.2-1.6,0.7c-0.4,0.4-0.7,1-0.7,1.6c0,0.6,0.2,1.2,0.7,1.6C29.8,12.3,30.4,12.5,31,12.5z"/>
<path class="st0" d="M119.9,46.7V17c0-5-4.1-9-9.2-9H40.7c-1.3,0-2.3,1-2.3,2.2c0,1.2,1,2.2,2.3,2.2h70.1c2.5,0,4.6,2,4.6,4.5v29.7
	c0,2.5-2.1,4.5-4.6,4.5H99.7c-0.1,0-0.1,0-0.2,0c-3.6-6.1-9.3-10.9-16.2-13.2l3.4-6.9l4.1,7.7c0.4,0.7,1.2,1.2,2,1.2h0
	c0.9,0,1.7-0.5,2-1.3l5.8-11.7c0.6-1.1,0.1-2.5-1.1-3c-1.1-0.5-2.5-0.1-3.1,1.1l-3.8,7.6L88.7,25c-0.4-0.8-1.2-1.2-2.1-1.2
	c-0.9,0-1.7,0.5-2,1.3l-3.8,7.6L76.7,25c-0.6-1.1-2-1.5-3.1-1c-1.1,0.6-1.6,1.9-1,3l5.1,9.6c-1.4-0.2-2.8-0.3-4.3-0.3
	c-2.8,0-5.6,0.4-8.2,1.1L70.4,27c0.6-1.1,0.1-2.5-1.1-3c-1.1-0.5-2.5-0.1-3.1,1.1l-3.8,7.6L58.4,25c-0.4-0.8-1.2-1.2-2.1-1.2
	c-0.9,0-1.7,0.5-2,1.3l-3.8,7.6L46.4,25c-0.6-1.1-2-1.5-3.1-1c-1.1,0.6-1.6,1.9-1,3l6.2,11.7c0.4,0.8,1.2,1.2,2.1,1.2
	c0.9,0,1.7-0.5,2-1.3l3.8-7.6l4.1,7.7c0.1,0.1,0.2,0.2,0.2,0.4c-5.7,2.6-10.3,6.8-13.4,12.1H11.2c-2.5,0-4.6-2-4.6-4.5V17
	c0-2.5,2.1-4.5,4.6-4.5h9.4c1.3,0,2.3-1,2.3-2.2c0-1.2-1-2.2-2.3-2.2h-9.4c-5.1,0-9.2,4-9.2,9v29.7c0,5,4.1,9,9.2,9h34
	c-1.1,3.1-1.8,6.4-1.8,9.9c0,16.1,13.4,29.2,30,29.2c5.4,0,10.5-1.4,14.9-3.9l18.3,17.8c1.5,1.5,3.5,2.2,5.5,2.2c2,0,4-0.7,5.5-2.2
	c3-3,3-7.8,0-10.8l-7.2-7c-0.9-0.9-2.4-0.9-3.3,0c-0.9,0.9-0.9,2.3,0,3.2l7.2,7c1.2,1.2,1.2,3.2,0,4.4c-1.2,1.2-3.3,1.2-4.5,0
	L92.2,88.4c6.8-5.4,11.2-13.6,11.2-22.8c0-3.5-0.6-6.8-1.8-9.9h9.1C115.8,55.7,119.9,51.7,119.9,46.7z M73.4,90.3
	c-14,0-25.4-11.1-25.4-24.7s11.4-24.7,25.4-24.7S98.7,52,98.7,65.6S87.4,90.3,73.4,90.3z"/>
<path class="st0" d="M101.7,85.7c-0.4,0.4-0.7,1-0.7,1.6c0,0.6,0.2,1.2,0.7,1.6c0.4,0.4,1,0.7,1.6,0.7c0.6,0,1.2-0.2,1.6-0.7
	c0.4-0.4,0.7-1,0.7-1.6c0-0.6-0.2-1.2-0.7-1.6c-0.4-0.4-1-0.7-1.6-0.7C102.8,85,102.2,85.2,101.7,85.7z"/>
</svg>
