<?xml version="1.0" encoding="utf-8"?>
<!-- Generator: Adobe Illustrator 24.0.2, SVG Export Plug-In . SVG Version: 6.00 Build 0)  -->
<svg version="1.1" id="Capa_1" xmlns="http://www.w3.org/2000/svg" xmlns:xlink="http://www.w3.org/1999/xlink" x="0px" y="0px"
	 viewBox="0 0 121.9 119.1" style="enable-background:new 0 0 121.9 119.1;" xml:space="preserve">
<style type="text/css">
	.st0{fill-rule:evenodd;clip-rule:evenodd;fill:#FFFFFF;}
</style>
<path class="st0" d="M31,11.3c0.6-0.8,1.6-1.3,2.6-1.3h54.8c1,0,2,0.5,2.6,1.3l13.7,18.5c0.4,0.6,0.6,1.2,0.6,1.9v64.8
	c0,3.3-1.3,6.5-3.6,8.8c-2.3,2.3-5.5,3.7-8.7,3.7H29c-3.3,0-6.4-1.3-8.7-3.7c-2.3-2.3-3.6-5.5-3.6-8.8V31.7c0-0.7,0.2-1.4,0.6-1.9
	L31,11.3z M35.2,16.4l-8.9,12.1h69.4l-8.9-12.1H35.2z M98.8,35H23.1v61.6c0,1.6,0.6,3.1,1.7,4.3c1.1,1.1,2.6,1.8,4.2,1.8h63.9
	c1.6,0,3.1-0.6,4.2-1.8c1.1-1.1,1.7-2.7,1.7-4.3V35z M42.7,47c1.8,0,3.2,1.4,3.2,3.2c0,4.1,1.6,8,4.4,10.8c2.8,2.9,6.7,4.5,10.6,4.5
	s7.8-1.6,10.6-4.5c2.8-2.9,4.4-6.8,4.4-10.8c0-1.8,1.4-3.2,3.2-3.2c1.8,0,3.2,1.4,3.2,3.2c0,5.8-2.3,11.3-6.3,15.4
	c-4,4.1-9.5,6.4-15.2,6.4s-11.2-2.3-15.2-6.4c-4-4.1-6.3-9.6-6.3-15.4C39.5,48.5,40.9,47,42.7,47z"/>
</svg>
