<?xml version="1.0" encoding="utf-8"?>
<!-- Generator: Adobe Illustrator 24.0.2, SVG Export Plug-In . SVG Version: 6.00 Build 0)  -->
<svg version="1.1" id="Capa_1" xmlns="http://www.w3.org/2000/svg" xmlns:xlink="http://www.w3.org/1999/xlink" x="0px" y="0px"
	 viewBox="0 0 121.9 119.1" style="enable-background:new 0 0 121.9 119.1;" xml:space="preserve">
<style type="text/css">
	.st0{fill-rule:evenodd;clip-rule:evenodd;fill:#FFFFFF;}
</style>
<path class="st0" d="M14.1,56.4h23.8c0.9-15.7,6.5-30.7,15.9-43.3C32.2,16.4,15.5,34.3,14.1,56.4z M60.9,14.2
	c-9.9,11.9-15.7,26.7-16.8,42.2h33.5C76.7,40.9,70.8,26.1,60.9,14.2z M77.7,62.7c-1,15.5-6.9,30.2-16.8,42.2
	c-9.9-11.9-15.7-26.7-16.8-42.2H77.7z M37.8,62.7H14.1c1.5,22.1,18.2,40,39.7,43.3C44.3,93.4,38.8,78.4,37.8,62.7z M68.1,106
	c9.4-12.5,15-27.6,15.9-43.3h23.8C106.3,84.8,89.6,102.7,68.1,106z M107.8,56.4H84c-0.9-15.7-6.5-30.7-15.9-43.3
	C89.6,16.4,106.3,34.3,107.8,56.4z M7.6,59.5c0-29.4,23.9-53.3,53.3-53.3s53.3,23.9,53.3,53.3s-23.9,53.3-53.3,53.3S7.6,89,7.6,59.5
	z"/>
</svg>
