<?xml version="1.0" encoding="utf-8"?>
<!-- Generator: Adobe Illustrator 24.0.2, SVG Export Plug-In . SVG Version: 6.00 Build 0)  -->
<svg version="1.1" id="Capa_1" xmlns="http://www.w3.org/2000/svg" xmlns:xlink="http://www.w3.org/1999/xlink" x="0px" y="0px"
	 viewBox="0 0 28.3 28.3" style="enable-background:new 0 0 28.3 28.3;" xml:space="preserve">
<style type="text/css">
	.st0{fill-rule:evenodd;clip-rule:evenodd;fill:#292B2F;}
</style>
<path class="st0" d="M2.9,6.3l11.3,7.6l11.3-7.6c-0.2-0.4-0.6-0.7-1.1-0.7H4C3.5,5.6,3.1,5.9,2.9,6.3z M25.6,9.2l-10.7,7.2
	c-0.4,0.3-1,0.3-1.5,0L2.7,9.2v12.3c0,0.7,0.6,1.2,1.3,1.2h20.4c0.7,0,1.3-0.6,1.3-1.2V9.2z M0.2,6.8c0-2,1.7-3.7,3.8-3.7h20.4
	c2.1,0,3.8,1.6,3.8,3.7v14.7c0,2-1.7,3.7-3.8,3.7H4c-2.1,0-3.8-1.6-3.8-3.7V6.8z"/>
</svg>
