<?xml version="1.0" encoding="utf-8"?>
<!-- Generator: Adobe Illustrator 24.0.2, SVG Export Plug-In . SVG Version: 6.00 Build 0)  -->
<svg version="1.1" id="Capa_1" xmlns="http://www.w3.org/2000/svg" xmlns:xlink="http://www.w3.org/1999/xlink" x="0px" y="0px"
	 viewBox="0 0 28.3 28.3" style="enable-background:new 0 0 28.3 28.3;" xml:space="preserve">
<style type="text/css">
	.st0{fill:none;stroke:#292B2F;stroke-width:2;stroke-linecap:round;stroke-linejoin:round;}
</style>
<path class="st0" d="M21.9,11.2c-1.2-2.3-2.2-3.4-4.7-4.7 M26.7,11.2c-1.3-1.9-2.7-3.8-4.2-5.3c-1.6-1.6-3.4-2.9-5.3-4.2 M25.5,20.7
	v3.6c0,0.3-0.1,0.7-0.2,1c-0.1,0.3-0.3,0.6-0.6,0.8c-0.2,0.2-0.5,0.4-0.9,0.5c-0.3,0.1-0.7,0.1-1,0.1c-3.7-0.4-7.2-1.7-10.3-3.7
	c-2.9-1.8-5.3-4.3-7.2-7.2c-2-3.1-3.3-6.7-3.7-10.4c0-0.3,0-0.7,0.1-1c0.1-0.3,0.3-0.6,0.5-0.8c0.2-0.2,0.5-0.4,0.8-0.6
	c0.3-0.1,0.6-0.2,1-0.2h3.6c0.6,0,1.1,0.2,1.6,0.6C9.7,3.8,10,4.3,10,4.9c0.2,1.1,0.4,2.3,0.8,3.4C11,8.7,11.1,9.2,11,9.6
	c-0.1,0.4-0.3,0.9-0.6,1.2l-1.5,1.5c1.7,3,4.2,5.5,7.2,7.2l1.5-1.5c0.3-0.3,0.7-0.5,1.2-0.6c0.4-0.1,0.9-0.1,1.3,0.1
	c1.1,0.4,2.2,0.7,3.4,0.8c0.6,0.1,1.1,0.4,1.5,0.8C25.3,19.5,25.5,20.1,25.5,20.7z"/>
</svg>
