<?xml version="1.0" encoding="utf-8"?>
<!-- Generator: Adobe Illustrator 24.0.2, SVG Export Plug-In . SVG Version: 6.00 Build 0)  -->
<svg version="1.1" id="Capa_1" xmlns="http://www.w3.org/2000/svg" xmlns:xlink="http://www.w3.org/1999/xlink" x="0px" y="0px"
	 viewBox="0 0 36.9 36.9" style="enable-background:new 0 0 36.9 36.9;" xml:space="preserve">
<style type="text/css">
	.st0{fill-rule:evenodd;clip-rule:evenodd;fill:#292B2F;}
</style>
<path class="st0" d="M18.3,0.9C8.6,0.9,0.7,8.8,0.7,18.5c0,3.4,1,6.7,2.8,9.5l-2.7,5.8c-0.2,0.5-0.1,1.2,0.2,1.6
	c0.3,0.3,0.7,0.5,1.2,0.5c0.1,0,0.3,0,0.4-0.1l7.3-2c2.6,1.4,5.4,2,8.3,2c9.7,0,17.5-7.9,17.5-17.5C35.8,8.8,28,0.9,18.3,0.9z
	 M18.3,32.9c-2.6,0-5.1-0.6-7.2-2c-0.2-0.1-0.5-0.2-0.7-0.2c-0.1,0-0.3,0-0.4,0.1l-4.8,1.3l1.7-3.7C7,27.8,7,27.3,6.7,26.9
	c-1.8-2.4-2.8-5.4-2.8-8.4c0-8,6.5-14.5,14.5-14.5c8,0,14.4,6.5,14.4,14.5C32.8,26.5,26.3,32.9,18.3,32.9z"/>
<path class="st0" d="M25,21.1c-0.7-0.4-1.7-1-2.6-0.5c-0.6,0.3-1.1,1.3-1.5,1.8c-0.2,0.3-0.5,0.3-0.9,0.2c-2.4-1-4.4-2.7-5.7-4.9
	c-0.2-0.3-0.2-0.6,0.1-1c0.4-0.5,1-1.1,1.1-1.7c0.1-0.6-0.2-1.4-0.4-2c-0.3-0.7-0.7-1.8-1.5-2.2c-0.6-0.4-1.6-0.2-2.2,0.3
	c-1.1,0.9-1.6,2.2-1.6,3.5c0,0.4,0,0.7,0.1,1.2c0.2,0.9,0.6,1.7,1.1,2.4c0.3,0.6,0.7,1.2,1.2,1.7c1.4,1.8,3,3.4,4.9,4.6
	c1,0.6,2,1.1,3.1,1.5c1.2,0.4,2.2,0.9,3.5,0.5c1.4-0.2,2.7-1.1,3.2-2.4c0.1-0.4,0.2-0.9,0.1-1.3C26.8,22,25.7,21.6,25,21.1z"/>
</svg>
