<?xml version="1.0" encoding="utf-8"?>
<!-- Generator: Adobe Illustrator 24.0.2, SVG Export Plug-In . SVG Version: 6.00 Build 0)  -->
<svg version="1.1" id="Capa_1" xmlns="http://www.w3.org/2000/svg" xmlns:xlink="http://www.w3.org/1999/xlink" x="0px" y="0px"
	 viewBox="0 0 28.3 28.3" style="enable-background:new 0 0 28.3 28.3;" xml:space="preserve">
<style type="text/css">
	.st0{fill-rule:evenodd;clip-rule:evenodd;fill:#FFFFFF;}
</style>
<path class="st0" d="M8.7,3.7h11c0.6,0,1.3,0.2,1.8,0.5c0.5,0.3,1,0.8,1.3,1.4c0,0,0,0,0,0l4,8c0.1,0.2,0.1,0.3,0.1,0.5v7
	c0,0.9-0.4,1.8-1,2.5c-0.7,0.7-1.5,1-2.5,1H4.9c-0.9,0-1.8-0.4-2.5-1c-0.7-0.7-1-1.5-1-2.5v-7c0-0.2,0-0.4,0.1-0.5l4-8c0,0,0,0,0,0
	c0.3-0.6,0.7-1.1,1.3-1.4C7.4,3.9,8,3.7,8.7,3.7z M8.7,6.1C8.4,6.1,8.2,6.1,8,6.2C7.9,6.3,7.7,6.5,7.6,6.7l0,0L4.5,13h19.4l-3.2-6.3
	l0,0c-0.1-0.2-0.2-0.4-0.4-0.5c-0.2-0.1-0.4-0.2-0.6-0.2H8.7z M24.6,15.3H3.7v5.8c0,0.3,0.1,0.6,0.3,0.8c0.2,0.2,0.5,0.3,0.8,0.3
	h18.5c0.3,0,0.6-0.1,0.8-0.3c0.2-0.2,0.3-0.5,0.3-0.8V15.3z M6.1,18.8c0-0.6,0.5-1.2,1.2-1.2h0c0.6,0,1.2,0.5,1.2,1.2
	c0,0.6-0.5,1.2-1.2,1.2h0C6.6,20,6.1,19.5,6.1,18.8z M10.7,18.8c0-0.6,0.5-1.2,1.2-1.2h0c0.6,0,1.2,0.5,1.2,1.2
	c0,0.6-0.5,1.2-1.2,1.2h0C11.2,20,10.7,19.5,10.7,18.8z"/>
</svg>
