<?xml version="1.0" encoding="utf-8"?>
<!-- Generator: Adobe Illustrator 24.0.2, SVG Export Plug-In . SVG Version: 6.00 Build 0)  -->
<svg version="1.1" id="Capa_1" xmlns="http://www.w3.org/2000/svg" xmlns:xlink="http://www.w3.org/1999/xlink" x="0px" y="0px"
	 viewBox="0 0 28.3 28.3" style="enable-background:new 0 0 28.3 28.3;" xml:space="preserve">
<style type="text/css">
	.st0{fill-rule:evenodd;clip-rule:evenodd;fill:#FFFFFF;}
</style>
<path class="st0" d="M26.8,1.5c0.3,0.3,0.4,0.8,0.3,1.2l-8.3,23.6c-0.2,0.5-0.6,0.8-1.1,0.8c-0.5,0-0.9-0.3-1.1-0.7l-4.5-10.2
	L1.9,11.7c-0.4-0.2-0.7-0.6-0.7-1.1c0-0.5,0.3-0.9,0.8-1.1l23.6-8.3C26,1.1,26.5,1.2,26.8,1.5z M14.4,15.6l3.2,7.2l5.6-15.9
	L14.4,15.6z M21.5,5.2L5.6,10.8l7.2,3.2L21.5,5.2z"/>
</svg>
