<?xml version="1.0" encoding="utf-8"?>
<!-- Generator: Adobe Illustrator 24.0.2, SVG Export Plug-In . SVG Version: 6.00 Build 0)  -->
<svg version="1.1" id="Capa_1" xmlns="http://www.w3.org/2000/svg" xmlns:xlink="http://www.w3.org/1999/xlink" x="0px" y="0px"
	 viewBox="0 0 28.3 28.3" style="enable-background:new 0 0 28.3 28.3;" xml:space="preserve">
<style type="text/css">
	.st0{fill-rule:evenodd;clip-rule:evenodd;fill:#FFFFFF;}
</style>
<path class="st0" d="M9.3,3.3c0.7-0.7,1.6-1,2.5-1h4.8c0.9,0,1.9,0.4,2.5,1c0.7,0.7,1,1.6,1,2.5V7h3.6c2,0,3.6,1.6,3.6,3.6v11.9
	c0,2-1.6,3.6-3.6,3.6h-19c-2,0-3.6-1.6-3.6-3.6V10.6c0-2,1.6-3.6,3.6-3.6h3.6V5.8C8.2,4.9,8.6,4,9.3,3.3z M8.2,9.4H4.7
	c-0.7,0-1.2,0.5-1.2,1.2v11.9c0,0.7,0.5,1.2,1.2,1.2h3.6V9.4z M10.6,23.7V9.4h7.1v14.3H10.6z M20.1,23.7h3.6c0.7,0,1.2-0.5,1.2-1.2
	V10.6c0-0.7-0.5-1.2-1.2-1.2h-3.6V23.7z M17.7,7h-7.1V5.8c0-0.3,0.1-0.6,0.3-0.8c0.2-0.2,0.5-0.3,0.8-0.3h4.8c0.3,0,0.6,0.1,0.8,0.3
	c0.2,0.2,0.3,0.5,0.3,0.8V7z"/>
</svg>
