<?xml version="1.0" encoding="utf-8"?>
<!-- Generator: Adobe Illustrator 24.0.2, SVG Export Plug-In . SVG Version: 6.00 Build 0)  -->
<svg version="1.1" id="Capa_1" xmlns="http://www.w3.org/2000/svg" xmlns:xlink="http://www.w3.org/1999/xlink" x="0px" y="0px"
	 viewBox="0 0 28.3 28.3" style="enable-background:new 0 0 28.3 28.3;" xml:space="preserve">
<style type="text/css">
	.st0{fill-rule:evenodd;clip-rule:evenodd;fill:#FFFFFF;}
</style>
<path class="st0" d="M13.5,1.6c0.4-0.3,1-0.3,1.4,0l10.5,8.2c0.3,0.2,0.5,0.6,0.5,0.9v12.8c0,0.9-0.4,1.8-1,2.5
	c-0.7,0.7-1.5,1-2.5,1H6c-0.9,0-1.8-0.4-2.5-1c-0.7-0.7-1-1.5-1-2.5V10.7c0-0.4,0.2-0.7,0.5-0.9L13.5,1.6z M11.8,24.7h4.7v-9.3h-4.7
	V24.7z M18.8,24.7V14.2c0-0.6-0.5-1.2-1.2-1.2h-7c-0.6,0-1.2,0.5-1.2,1.2v10.5H6c-0.3,0-0.6-0.1-0.8-0.3c-0.2-0.2-0.3-0.5-0.3-0.8
	V11.2L14.2,4l9.3,7.3v12.3c0,0.3-0.1,0.6-0.3,0.8c-0.2,0.2-0.5,0.3-0.8,0.3H18.8z"/>
</svg>
