<?xml version="1.0" encoding="utf-8"?>
<!-- Generator: Adobe Illustrator 24.0.2, SVG Export Plug-In . SVG Version: 6.00 Build 0)  -->
<svg version="1.1" id="Capa_1" xmlns="http://www.w3.org/2000/svg" xmlns:xlink="http://www.w3.org/1999/xlink" x="0px" y="0px"
	 viewBox="0 0 28.3 28.3" style="enable-background:new 0 0 28.3 28.3;" xml:space="preserve">
<style type="text/css">
	.st0{fill-rule:evenodd;clip-rule:evenodd;fill:#FFFFFF;}
</style>
<path class="st0" d="M11,5.6C9.2,5.6,7.7,7,7.7,8.8S9.2,12,11,12c1.8,0,3.2-1.4,3.2-3.2S12.7,5.6,11,5.6z M5.6,8.8
	c0-3,2.4-5.4,5.4-5.4c3,0,5.4,2.4,5.4,5.4s-2.4,5.4-5.4,5.4C8,14.2,5.6,11.8,5.6,8.8z M17.4,4.4c0.1-0.6,0.7-0.9,1.3-0.8
	c1.2,0.3,2.2,1,2.9,1.9c0.7,0.9,1.1,2.1,1.1,3.3s-0.4,2.4-1.1,3.3c-0.7,0.9-1.8,1.6-2.9,1.9c-0.6,0.1-1.2-0.2-1.3-0.8
	c-0.1-0.6,0.2-1.2,0.8-1.3c0.7-0.2,1.3-0.6,1.7-1.1c0.4-0.6,0.7-1.3,0.7-2c0-0.7-0.2-1.4-0.7-2c-0.4-0.6-1.1-1-1.7-1.1
	C17.6,5.5,17.3,5,17.4,4.4z M2.9,17.9c1-1,2.4-1.6,3.8-1.6h8.6c1.4,0,2.8,0.6,3.8,1.6c1,1,1.6,2.4,1.6,3.8v2.1
	c0,0.6-0.5,1.1-1.1,1.1c-0.6,0-1.1-0.5-1.1-1.1v-2.1c0-0.9-0.3-1.7-0.9-2.3s-1.4-0.9-2.3-0.9H6.7c-0.9,0-1.7,0.3-2.3,0.9
	s-0.9,1.4-0.9,2.3v2.1c0,0.6-0.5,1.1-1.1,1.1c-0.6,0-1.1-0.5-1.1-1.1v-2.1C1.3,20.3,1.8,18.9,2.9,17.9z M21.7,17.3
	c0.1-0.6,0.7-0.9,1.3-0.8c1.2,0.3,2.2,1,2.9,1.9c0.7,0.9,1.1,2.1,1.1,3.3v2.1c0,0.6-0.5,1.1-1.1,1.1c-0.6,0-1.1-0.5-1.1-1.1v-2.1
	c0-0.7-0.2-1.4-0.7-2c-0.4-0.6-1-1-1.7-1.1C21.9,18.4,21.6,17.8,21.7,17.3z"/>
</svg>
