<?xml version="1.0" encoding="utf-8"?>
<!-- Generator: Adobe Illustrator 24.0.2, SVG Export Plug-In . SVG Version: 6.00 Build 0)  -->
<svg version="1.1" id="Capa_1" xmlns="http://www.w3.org/2000/svg" xmlns:xlink="http://www.w3.org/1999/xlink" x="0px" y="0px"
	 viewBox="0 0 28.3 28.3" style="enable-background:new 0 0 28.3 28.3;" xml:space="preserve">
<style type="text/css">
	.st0{fill-rule:evenodd;clip-rule:evenodd;fill:#FFFFFF;}
</style>
<g>
	<path class="st0" d="M14.2,1.7C7.3,1.7,1.6,7.3,1.6,14.2c0,2.4,0.7,4.8,2,6.8l-1.9,4.2c-0.2,0.4-0.1,0.8,0.2,1.1
		c0.2,0.2,0.5,0.4,0.8,0.4c0.1,0,0.2,0,0.3-0.1l5.2-1.4c1.8,1,3.9,1.4,5.9,1.4c6.9,0,12.5-5.6,12.5-12.5C26.7,7.3,21.1,1.7,14.2,1.7
		z M14.2,24.5c-1.8,0-3.6-0.5-5.2-1.4c-0.2-0.1-0.4-0.2-0.5-0.2c-0.1,0-0.2,0-0.3,0.1l-3.4,0.9L6,21.3c0.2-0.4,0.2-0.8-0.1-1.1
		c-1.3-1.7-2-3.9-2-6c0-5.7,4.6-10.3,10.3-10.3c5.7,0,10.3,4.6,10.3,10.3C24.5,19.9,19.9,24.5,14.2,24.5z"/>
	<path class="st0" d="M19,16.1c-0.5-0.3-1.2-0.7-1.8-0.4c-0.5,0.2-0.8,0.9-1.1,1.3c-0.2,0.2-0.4,0.2-0.6,0.2
		c-1.7-0.7-3.1-1.9-4.1-3.5c-0.2-0.2-0.2-0.5,0.1-0.7c0.3-0.4,0.7-0.8,0.8-1.2c0.1-0.5-0.2-1-0.3-1.4c-0.2-0.5-0.5-1.3-1.1-1.6
		C10.4,8.4,9.7,8.6,9.2,9c-0.8,0.6-1.1,1.6-1.1,2.5c0,0.3,0,0.5,0.1,0.8c0.2,0.6,0.5,1.2,0.8,1.7c0.2,0.5,0.5,0.8,0.8,1.2
		c1,1.3,2.1,2.4,3.5,3.3c0.7,0.5,1.4,0.8,2.2,1.1c0.8,0.3,1.6,0.6,2.5,0.4c1-0.2,1.9-0.8,2.3-1.7c0.1-0.3,0.2-0.6,0.1-0.9
		C20.3,16.7,19.5,16.4,19,16.1z"/>
</g>
</svg>
